<svg width="267" height="290" viewBox="0 0 267 290" fill="none" xmlns="http://www.w3.org/2000/svg">
<path d="M119.257 31.0179L128.752 10.3393L129.661 10.7566L133.5 2.39637L137.339 10.7566L138.248 10.3393L147.743 31.0178L146.834 31.4351L156.33 52.1137L157.238 51.6964L166.734 72.375L165.825 72.7923L175.32 93.4709L176.229 93.0536L185.724 113.732L184.816 114.149L194.311 134.828L195.22 134.411L204.715 155.089L203.806 155.507L213.302 176.185L214.21 175.768L223.706 196.446L222.797 196.864L232.292 217.542L233.201 217.125L242.697 237.804L241.788 238.221L251.283 258.899L252.192 258.482L261.687 279.161L260.778 279.578L264.875 288.5H255.357V289.5H233.201V288.5H211.045V289.5H188.89V288.5H166.734V289.5H144.578V288.5H122.422V289.5H100.266V288.5H78.1105V289.5H55.9546V288.5H33.7988V289.5H11.643V288.5H2.12467L6.22153 279.578L5.31276 279.161L14.8081 258.482L15.7169 258.899L25.2122 238.221L24.3035 237.804L33.7988 217.125L34.7076 217.542L44.2029 196.864L43.2942 196.446L52.7895 175.768L53.6983 176.185L63.1936 155.507L62.2849 155.089L71.7802 134.411L72.689 134.828L82.1843 114.149L81.2756 113.732L90.7709 93.0536L91.6797 93.4709L101.175 72.7923L100.266 72.375L109.762 51.6964L110.67 52.1137L120.166 31.4352L119.257 31.0179Z" stroke="#171415" stroke-width="2" stroke-dasharray="24 24"/>
</svg>
